HIERARCHY
ROOT Hips
{
  OFFSET 197.842 101.293 11.6902
  CHANNELS 6 Xposition Yposition Zposition Zrotation Xrotation Yrotation
  JOINT Spine
  {
    OFFSET 0 6.79576 0
    CHANNELS 6 Xposition Yposition Zposition Zrotation Xrotation Yrotation
    JOINT Spine1
    {
      OFFSET 0 6.79574 0
      CHANNELS 6 Xposition Yposition Zposition Zrotation Xrotation Yrotation
      JOINT Spine2
      {
        OFFSET 0 6.79576 0
        CHANNELS 6 Xposition Yposition Zposition Zrotation Xrotation Yrotation
        JOINT Spine3
        {
          OFFSET 0 6.79575 0
          CHANNELS 6 Xposition Yposition Zposition Zrotation Xrotation Yrotation
          JOINT Neck
          {
            OFFSET 0 14.441 0
            CHANNELS 6 Xposition Yposition Zposition Zrotation Xrotation Yrotation
            JOINT Head
            {
              OFFSET 0 9.17427 0
              CHANNELS 6 Xposition Yposition Zposition Zrotation Xrotation Yrotation
              End Site
              {
                OFFSET 0 17.2017 0
              }
            }
          }
          JOINT LeftShoulder
          {
            OFFSET 5.00001 17 0
            CHANNELS 6 Xposition Yposition Zposition Zrotation Xrotation Yrotation
            JOINT LeftShoulder2
            {
              OFFSET 6.5 0 0
              CHANNELS 6 Xposition Yposition Zposition Zrotation Xrotation Yrotation
              JOINT LeftArm
              {
                OFFSET 6.49999 3.93227e-05 0
                CHANNELS 6 Xposition Yposition Zposition Zrotation Xrotation Yrotation
                JOINT LeftForeArm
                {
                  OFFSET 0 -37.9535 -1.99999
                  CHANNELS 6 Xposition Yposition Zposition Zrotation Xrotation Yrotation
                  JOINT LeftHand
                  {
                    OFFSET 0 -30.0465 2
                    CHANNELS 6 Xposition Yposition Zposition Zrotation Xrotation Yrotation
                    JOINT LeftHandThumb1
                    {
                      OFFSET -0.499996 -1.5 2.65
                      CHANNELS 6 Xposition Yposition Zposition Zrotation Xrotation Yrotation
                      JOINT LeftHandThumb2
                      {
                        OFFSET -1.2872e-05 -3.8 3.7
                        CHANNELS 6 Xposition Yposition Zposition Zrotation Xrotation Yrotation
                        JOINT LeftHandThumb3
                        {
                          OFFSET 1.13876e-05 -3 2.7
                          CHANNELS 6 Xposition Yposition Zposition Zrotation Xrotation Yrotation
                          End Site
                          {
                            OFFSET -1.36665e-05 -2.29999 1.79999
                          }
                        }
                      }
                    }
                    JOINT LeftHandIndex
                    {
                      OFFSET 0 -1.9 1.6
                      CHANNELS 6 Xposition Yposition Zposition Zrotation Xrotation Yrotation
                      JOINT LeftHandIndex1
                      {
                        OFFSET 0 -8.3 1.9
                        CHANNELS 6 Xposition Yposition Zposition Zrotation Xrotation Yrotation
                        JOINT LeftHandIndex2
                        {
                          OFFSET 0 -4.5 0
                          CHANNELS 6 Xposition Yposition Zposition Zrotation Xrotation Yrotation
                          JOINT LeftHandIndex3
                          {
                            OFFSET 1.58366e-05 -3.4 0
                            CHANNELS 6 Xposition Yposition Zposition Zrotation Xrotation Yrotation
                            End Site
                            {
                              OFFSET -1.51232e-05 -2.6 0
                            }
                          }
                        }
                      }
                    }
                    JOINT LeftHandMiddle
                    {
                      OFFSET -0.249995 -2.2 0.4
                      CHANNELS 6 Xposition Yposition Zposition Zrotation Xrotation Yrotation
                      JOINT LeftHandMiddle1
                      {
                        OFFSET 0 -8.30001 1
                        CHANNELS 6 Xposition Yposition Zposition Zrotation Xrotation Yrotation
                        JOINT LeftHandMiddle2
                        {
                          OFFSET -1.28491e-05 -4.65 0
                          CHANNELS 6 Xposition Yposition Zposition Zrotation Xrotation Yrotation
                          JOINT LeftHandMiddle3
                          {
                            OFFSET 0 -3.3 0
                            CHANNELS 6 Xposition Yposition Zposition Zrotation Xrotation Yrotation
                            End Site
                            {
                              OFFSET 0 -2.7 0
                            }
                          }
                        }
                      }
                    }
                    JOINT LeftHandRing
                    {
                      OFFSET -0.500007 -2.15 -0.800001
                      CHANNELS 6 Xposition Yposition Zposition Zrotation Xrotation Yrotation
                      JOINT LeftHandRing1
                      {
                        OFFSET 0 -7.75 -0.2
                        CHANNELS 6 Xposition Yposition Zposition Zrotation Xrotation Yrotation
                        JOINT LeftHandRing2
                        {
                          OFFSET 1.07096e-05 -3.8 0
                          CHANNELS 6 Xposition Yposition Zposition Zrotation Xrotation Yrotation
                          JOINT LeftHandRing3
                          {
                            OFFSET 0 -3.4 0
                            CHANNELS 6 Xposition Yposition Zposition Zrotation Xrotation Yrotation
                            End Site
                            {
                              OFFSET 0 -2.60001 0
                            }
                          }
                        }
                      }
                    }
                    JOINT LeftHandPinky
                    {
                      OFFSET -0.75 -1.75 -1.85
                      CHANNELS 6 Xposition Yposition Zposition Zrotation Xrotation Yrotation
                      JOINT LeftHandPinky1
                      {
                        OFFSET 0 -7.15 -0.999994
                        CHANNELS 6 Xposition Yposition Zposition Zrotation Xrotation Yrotation
                        JOINT LeftHandPinky2
                        {
                          OFFSET 0 -3 0
                          CHANNELS 6 Xposition Yposition Zposition Zrotation Xrotation Yrotation
                          JOINT LeftHandPinky3
                          {
                            OFFSET 0 -2.35 0
                            CHANNELS 6 Xposition Yposition Zposition Zrotation Xrotation Yrotation
                            End Site
                            {
                              OFFSET 1.46766e-05 -2.1 0
                            }
                          }
                        }
                      }
                    }
                  }
                }
              }
            }
          }
          JOINT RightShoulder
          {
            OFFSET -4.99999 17 0
            CHANNELS 6 Xposition Yposition Zposition Zrotation Xrotation Yrotation
            JOINT RightShoulder2
            {
              OFFSET -6.5 0 0
              CHANNELS 6 Xposition Yposition Zposition Zrotation Xrotation Yrotation
              JOINT RightArm
              {
                OFFSET -6.5 0 0
                CHANNELS 6 Xposition Yposition Zposition Zrotation Xrotation Yrotation
                JOINT RightForeArm
                {
                  OFFSET -1.20474e-05 -37.9535 -2.00001
                  CHANNELS 6 Xposition Yposition Zposition Zrotation Xrotation Yrotation
                  JOINT RightHand
                  {
                    OFFSET 0 -30.0465 2
                    CHANNELS 6 Xposition Yposition Zposition Zrotation Xrotation Yrotation
                    JOINT RightHandThumb1
                    {
                      OFFSET 0.500007 -1.50001 2.65001
                      CHANNELS 6 Xposition Yposition Zposition Zrotation Xrotation Yrotation
                      JOINT RightHandThumb2
                      {
                        OFFSET 0 -3.79999 3.7
                        CHANNELS 6 Xposition Yposition Zposition Zrotation Xrotation Yrotation
                        JOINT RightHandThumb3
                        {
                          OFFSET -1.08124e-05 -3 2.7
                          CHANNELS 6 Xposition Yposition Zposition Zrotation Xrotation Yrotation
                          End Site
                          {
                            OFFSET 0 -2.3 1.8
                          }
                        }
                      }
                    }
                    JOINT RightHandIndex
                    {
                      OFFSET 0 -1.9 1.6
                      CHANNELS 6 Xposition Yposition Zposition Zrotation Xrotation Yrotation
                      JOINT RightHandIndex1
                      {
                        OFFSET 0 -8.3 1.9
                        CHANNELS 6 Xposition Yposition Zposition Zrotation Xrotation Yrotation
                        JOINT RightHandIndex2
                        {
                          OFFSET 1.08286e-05 -4.5 0
                          CHANNELS 6 Xposition Yposition Zposition Zrotation Xrotation Yrotation
                          JOINT RightHandIndex3
                          {
                            OFFSET 0 -3.39999 0
                            CHANNELS 6 Xposition Yposition Zposition Zrotation Xrotation Yrotation
                            End Site
                            {
                              OFFSET 0 -2.6 0
                            }
                          }
                        }
                      }
                    }
                    JOINT RightHandMiddle
                    {
                      OFFSET 0.249995 -2.2 0.4
                      CHANNELS 6 Xposition Yposition Zposition Zrotation Xrotation Yrotation
                      JOINT RightHandMiddle1
                      {
                        OFFSET 0 -8.3 1
                        CHANNELS 6 Xposition Yposition Zposition Zrotation Xrotation Yrotation
                        JOINT RightHandMiddle2
                        {
                          OFFSET 0 -4.65 0
                          CHANNELS 6 Xposition Yposition Zposition Zrotation Xrotation Yrotation
                          JOINT RightHandMiddle3
                          {
                            OFFSET 0 -3.3 0
                            CHANNELS 6 Xposition Yposition Zposition Zrotation Xrotation Yrotation
                            End Site
                            {
                              OFFSET 0 -2.7 0
                            }
                          }
                        }
                      }
                    }
                    JOINT RightHandRing
                    {
                      OFFSET 0.500003 -2.15 -0.799997
                      CHANNELS 6 Xposition Yposition Zposition Zrotation Xrotation Yrotation
                      JOINT RightHandRing1
                      {
                        OFFSET 0 -7.75 -0.200002
                        CHANNELS 6 Xposition Yposition Zposition Zrotation Xrotation Yrotation
                        JOINT RightHandRing2
                        {
                          OFFSET 0 -3.8 0
                          CHANNELS 6 Xposition Yposition Zposition Zrotation Xrotation Yrotation
                          JOINT RightHandRing3
                          {
                            OFFSET 0 -3.4 0
                            CHANNELS 6 Xposition Yposition Zposition Zrotation Xrotation Yrotation
                            End Site
                            {
                              OFFSET 0 -2.60001 0
                            }
                          }
                        }
                      }
                    }
                    JOINT RightHandPinky
                    {
                      OFFSET 0.749995 -1.75 -1.85
                      CHANNELS 6 Xposition Yposition Zposition Zrotation Xrotation Yrotation
                      JOINT RightHandPinky1
                      {
                        OFFSET 1.04198e-05 -7.15 -0.999992
                        CHANNELS 6 Xposition Yposition Zposition Zrotation Xrotation Yrotation
                        JOINT RightHandPinky2
                        {
                          OFFSET 0 -3 0
                          CHANNELS 6 Xposition Yposition Zposition Zrotation Xrotation Yrotation
                          JOINT RightHandPinky3
                          {
                            OFFSET 0 -2.35 0
                            CHANNELS 6 Xposition Yposition Zposition Zrotation Xrotation Yrotation
                            End Site
                            {
                              OFFSET 0 -2.09999 0
                            }
                          }
                        }
                      }
                    }
                  }
                }
              }
            }
          }
        }
      }
    }
  }
  JOINT LeftUpLeg
  {
    OFFSET 10 0 0
    CHANNELS 6 Xposition Yposition Zposition Zrotation Xrotation Yrotation
    JOINT LeftLeg
    {
      OFFSET 0 -49.4477 -1
      CHANNELS 6 Xposition Yposition Zposition Zrotation Xrotation Yrotation
      JOINT LeftFoot
      {
        OFFSET 0 -45.0524 -2
        CHANNELS 6 Xposition Yposition Zposition Zrotation Xrotation Yrotation
        JOINT LeftToeBase
        {
          OFFSET 0 -7.5 12.5
          CHANNELS 6 Xposition Yposition Zposition Zrotation Xrotation Yrotation
          JOINT LeftFootToe
          {
            OFFSET 0 0 4
            CHANNELS 6 Xposition Yposition Zposition Zrotation Xrotation Yrotation
            End Site
            {
              OFFSET 0 0 0
            }
          }
        }
      }
    }
  }
  JOINT RightUpLeg
  {
    OFFSET -10 0 0
    CHANNELS 6 Xposition Yposition Zposition Zrotation Xrotation Yrotation
    JOINT RightLeg
    {
      OFFSET -1.64136e-05 -49.4477 -1
      CHANNELS 6 Xposition Yposition Zposition Zrotation Xrotation Yrotation
      JOINT RightFoot
      {
        OFFSET 0 -45.0524 -2
        CHANNELS 6 Xposition Yposition Zposition Zrotation Xrotation Yrotation
        JOINT RightToeBase
        {
          OFFSET 0 -7.50001 12.5
          CHANNELS 6 Xposition Yposition Zposition Zrotation Xrotation Yrotation
          JOINT RightFootToe
          {
            OFFSET 0 0 4
            CHANNELS 6 Xposition Yposition Zposition Zrotation Xrotation Yrotation
            End Site
            {
              OFFSET 0 0 0
            }
          }
        }
      }
    }
  }
}
MOTION
Frames:	3
Frame Time:	0.0111111
169.107 102.421 4.02741 -1.84504 -2.65222 -120.289 -1.42109e-14 6.79575 2.84217e-14 -2.07069 1.41878 2.48258 1.42109e-14 6.79575 2.84217e-14 0.133741 0.164795 9.28277 0 6.79575 -2.84217e-14 -0.331639 0.541531 5.27525 0 6.79575 0 -0.218181 1.94099 2.9105 0 14.441 0 -4.3357 4.63246 12.1041 8.88178e-16 9.17427 0 -11.6564 9.2333 29.2056 5 17 -2.84217e-14 0.000164254 -0.00426586 2.23792 6.5 0 0 0.000165533 -0.00423598 2.23786 6.5 2.84217e-14 -2.84217e-14 8.84769 11.8553 -0.761906 0 -37.9535 -2 -115.657 -53.4693 -78.6892 0 -30.0465 2 27.2214 -16.9049 -3.28475 -0.5 -1.5 2.65 8.42598 -16.4216 10.5938 0 -3.8 3.7 0.0755102 4.32951 -0.0105285 -7.10543e-15 -3 2.7 -0.028138 -0.354515 -0.0246559 0 -1.9 1.6 3.50625e-06 -4.45589e-06 -2.83723e-06 0 -8.3 1.9 -8.19391 -21.9398 -1.29409 0 -4.5 2.84217e-14 -0.000303867 0.00565574 2.73472e-05 -2.84217e-14 -3.4 2.84217e-14 -1.29217e-06 0.00557918 -7.62182e-06 -0.25 -2.2 0.4 3.50625e-06 -4.45589e-06 -2.83723e-06 -7.10543e-15 -8.3 1 -7.35048 -18.9212 -0.875155 0 -4.65 0 -4.29032e-05 -7.66053e-06 3.60373e-05 1.42109e-14 -3.3 0 2.40003e-06 1.37176e-06 1.1919e-06 -0.5 -2.15 -0.8 3.50625e-06 -4.45589e-06 -2.83723e-06 -7.10543e-15 -7.75 -0.2 -7.79153 -15.7309 -0.584177 1.42109e-14 -3.8 -1.42109e-14 -2.65786e-05 4.05232e-06 -4.36725e-06 -1.42109e-14 -3.4 -1.42109e-14 -1.2577e-06 1.64477e-06 2.37749e-06 -0.75 -1.75 -1.85 3.50625e-06 -4.45589e-06 -2.83723e-06 -7.10543e-15 -7.15 -1 -5.31759 -16.5115 -0.11456 0 -3 0 -1.59111 0.00552405 0.00251108 0 -2.35 1.42109e-14 -1.55705 0.00531199 0.00276044 -5 17 0 9.91149e-05 -0.00612526 0.895232 -6.5 -2.84217e-14 0 9.54863e-05 -0.00611056 0.895256 -6.5 0 0 -11.5453 -3.33347 8.61701 0 -37.9535 -2 92.9316 -71.6482 69.9787 7.10543e-15 -30.0465 2 -6.00856 11.4614 29.7762 0.5 -1.5 2.65 -7.6457 -9.15602 -9.77622 -3.55271e-15 -3.8 3.7 0.0236933 5.29969 -0.00160519 1.77636e-15 -3 2.7 0.00549935 -0.0609506 -0.00675348 7.10543e-15 -1.9 1.6 1.18378e-06 -9.7053e-06 5.03183e-06 7.10543e-15 -8.3 1.9 0.801367 -7.55081 0.0188563 0 -4.5 -1.42109e-14 0.00766866 0.0021518 0.00383686 5.32907e-15 -3.4 1.42109e-14 0.00762992 0.00206907 0.00374038 0.25 -2.2 0.4 1.18378e-06 -9.7053e-06 5.03183e-06 -3.55271e-15 -8.3 1 0.423136 -5.49166 -0.05723 -1.77636e-15 -4.65 0 0.119039 -0.000972412 0.000839939 1.77636e-15 -3.3 1.42109e-14 2.53455e-06 0.000291887 0.00273697 0.5 -2.15 -0.8 1.18378e-06 -9.7053e-06 5.03183e-06 0 -7.75 -0.2 2.30805 -12.4258 0.00719371 3.55271e-15 -3.8 0 0.0709321 0.00296249 0.00176303 7.10543e-15 -3.4 -1.42109e-14 0.00727003 0.00278024 0.00145685 0.75 -1.75 -1.85 1.18378e-06 -9.7053e-06 5.03183e-06 5.32907e-15 -7.15 -1 0.846198 -7.70089 -0.0869413 3.55271e-15 -3 1.42109e-14 8.97796e-06 -0.00205201 -0.00238209 -7.10543e-15 -2.35 0 -6.00468e-06 -0.0018022 -0.00216348 10 0 0 4.27996 -40.7938 -4.8411 -7.10543e-15 -49.4477 -1 1.77284 39.4787 -13.1602 0 -45.0523 -2 -5.85923 -4.09888 -10.6327 0 -7.5 12.5 -2.36161e-06 -4.63669e-07 5.41863e-08 1.42109e-14 0 4 4.17869 -0.0142015 -0.0056703 -10 -1.42109e-14 0 -5.46026 -3.52922 3.52184 1.42109e-14 -49.4477 -1 -0.00825029 4.07416 -0.0556089 1.42109e-14 -45.0523 -2 2.47039 -0.429697 37.0515 0 -7.5 12.5 -5.21861e-09 -8.58363e-07 -5.56597e-13 -3.55271e-15 1.73472e-18 4 -2.52152 0.989874 -0.00565134 
169.417 102.452 3.85254 -1.86273 -2.76829 -119.917 -1.42109e-14 6.79575 2.84217e-14 -2.13553 1.45445 2.42746 0 6.79575 0 0.139514 0.182282 9.29628 7.10543e-15 6.79575 -2.84217e-14 -0.326477 0.545141 5.27692 3.55271e-15 6.79575 2.84217e-14 -0.21701 1.93421 2.8963 0 14.441 -2.84217e-14 -4.29462 4.70393 12.0226 0 9.17427 0 -11.579 9.42317 29.0211 5 17 0 0.000163802 -0.00426588 2.23186 6.5 0 0 0.000165186 -0.004236 2.23316 6.5 0 0 8.99017 11.829 -1.36003 0 -37.9535 -2 -115.522 -53.1211 -78.2994 0 -30.0465 2 27.1155 -16.9987 -3.2827 -0.5 -1.5 2.65 8.37981 -16.2164 10.6021 -7.10543e-15 -3.8 3.7 0.0754948 4.2459 -0.0105274 7.10543e-15 -3 2.7 -0.0281357 -0.349153 -0.0246559 0 -1.9 1.6 3.50625e-06 -4.45589e-06 -2.83723e-06 -7.10543e-15 -8.3 1.9 -8.15063 -21.8934 -1.28384 0 -4.5 0 -0.000303867 0.00565574 2.73472e-05 0 -3.4 2.84217e-14 -1.29217e-06 0.00557918 -7.62182e-06 -0.25 -2.2 0.4 3.50625e-06 -4.45589e-06 -2.83723e-06 0 -8.3 1 -7.30325 -18.9197 -0.867566 0 -4.65 0 -4.29032e-05 -7.66053e-06 3.60373e-05 1.42109e-14 -3.3 0 2.40003e-06 1.37176e-06 1.1919e-06 -0.5 -2.15 -0.8 3.50625e-06 -4.45589e-06 -2.83723e-06 0 -7.75 -0.2 -7.69437 -15.7695 -0.571993 0 -3.8 0 -2.65786e-05 4.05232e-06 -4.36725e-06 0 -3.4 0 -1.2577e-06 1.64477e-06 2.37749e-06 -0.75 -1.75 -1.85 3.50625e-06 -4.45589e-06 -2.83723e-06 0 -7.15 -1 -5.24081 -16.5356 -0.102661 0 -3 -1.42109e-14 -1.62087 0.00552405 0.00251108 0 -2.35 0 -1.58554 0.00531199 0.00276044 -5 17 0 9.63067e-05 -0.00612531 0.868964 -6.5 0 0 9.26074e-05 -0.0061106 0.868262 -6.5 0 0 -11.4464 -3.22951 8.58745 0 -37.9535 -2 93.0173 -71.7248 70.1183 0 -30.0465 2 -6.09684 11.4629 29.9566 0.5 -1.5 2.65 -7.66308 -9.166 -9.78617 0 -3.8 3.7 0.0236935 5.30646 -0.0016052 0 -3 2.7 0.00549935 -0.0609506 -0.00675348 -7.10543e-15 -1.9 1.6 1.18378e-06 -9.7053e-06 5.03183e-06 0 -8.3 1.9 0.803258 -7.55968 0.0188567 0 -4.5 -1.42109e-14 0.00766866 0.0021518 0.00383686 -5.32907e-15 -3.4 0 0.00762992 0.00206907 0.00374038 0.25 -2.2 0.4 1.18378e-06 -9.7053e-06 5.03183e-06 0 -8.3 1 0.423136 -5.49166 -0.05723 8.88178e-15 -4.65 0 0.119039 -0.000972412 0.000839939 0 -3.3 2.84217e-14 2.53455e-06 0.000291887 0.00273697 0.5 -2.15 -0.8 1.18378e-06 -9.7053e-06 5.03183e-06 -3.55271e-15 -7.75 -0.2 2.30805 -12.4262 0.00719372 -1.77636e-15 -3.8 -1.42109e-14 0.0709321 0.00296249 0.00176303 -7.10543e-15 -3.4 0 0.00727003 0.00278024 0.00145685 0.75 -1.75 -1.85 1.18378e-06 -9.7053e-06 5.03183e-06 1.77636e-15 -7.15 -1 0.846196 -7.7022 -0.0869416 0 -3 0 8.97796e-06 -0.00205201 -0.00238209 -7.10543e-15 -2.35 0 -6.00468e-06 -0.0018022 -0.00216348 10 -1.42109e-14 2.84217e-14 4.14297 -40.9868 -4.89391 -7.10543e-15 -49.4477 -1 1.74205 39.3564 -13.1016 0 -45.0523 -2 -5.57818 -3.92563 -10.1162 1.42109e-14 -7.5 12.5 -2.36161e-06 -4.63669e-07 5.41863e-08 -1.42109e-14 0 4 3.98111 -0.0151734 -0.0544175 -10 0 2.84217e-14 -5.38098 -3.6017 3.47608 -1.42109e-14 -49.4477 -1 -0.00825015 4.0743 -0.0556089 0 -45.0523 -2 2.28573 -0.365714 36.6461 -3.55271e-15 -7.5 12.5 -5.21861e-09 -8.58363e-07 -5.56597e-13 -7.10543e-15 0 4 -2.32108 0.691174 -0.00454435 
169.728 102.482 3.67767 -1.87875 -2.88103 -119.544 0 6.79575 0 -2.2003 1.49011 2.37233 1.42109e-14 6.79575 2.84217e-14 0.145278 0.199767 9.3098 7.10543e-15 6.79575 -2.84217e-14 -0.321315 0.548751 5.2786 3.55271e-15 6.79575 0 -0.216458 1.92923 2.89149 -3.55271e-15 14.441 -2.84217e-14 -4.25334 4.77543 11.9411 -8.88178e-16 9.17427 0 -11.5003 9.61357 28.8368 5 17 -2.84217e-14 0.000163351 -0.0042659 2.2258 6.5 2.84217e-14 -2.84217e-14 0.000164673 -0.00423602 2.22622 6.5 2.84217e-14 2.84217e-14 9.1321 11.8015 -1.95803 0 -37.9535 -2 -115.396 -52.771 -77.92 2.84217e-14 -30.0465 2 27.0097 -17.0924 -3.28066 -0.5 -1.5 2.65 8.33359 -16.0113 10.6106 0 -3.8 3.7 0.0754794 4.16228 -0.0105262 7.10543e-15 -3 2.7 -0.0281334 -0.343792 -0.0246559 7.10543e-15 -1.9 1.6 3.50625e-06 -4.45589e-06 -2.83723e-06 0 -8.3 1.9 -8.10738 -21.847 -1.27359 1.42109e-14 -4.5 0 -0.000303867 0.00565574 2.73472e-05 0 -3.4 -2.84217e-14 -1.29217e-06 0.00557918 -7.62182e-06 -0.25 -2.2 0.4 3.50625e-06 -4.45589e-06 -2.83723e-06 7.10543e-15 -8.3 1 -7.25603 -18.9182 -0.859978 0 -4.65 2.84217e-14 -4.29032e-05 -7.66053e-06 3.60373e-05 -1.42109e-14 -3.3 0 2.40003e-06 1.37176e-06 1.1919e-06 -0.5 -2.15 -0.8 3.50625e-06 -4.45589e-06 -2.83723e-06 -7.10543e-15 -7.75 -0.2 -7.59719 -15.808 -0.559805 0 -3.8 0 -2.65786e-05 4.05232e-06 -4.36725e-06 1.42109e-14 -3.4 -1.42109e-14 -1.2577e-06 1.64477e-06 2.37749e-06 -0.75 -1.75 -1.85 3.50625e-06 -4.45589e-06 -2.83723e-06 -7.10543e-15 -7.15 -1 -5.16402 -16.5596 -0.0907594 -1.42109e-14 -3 1.42109e-14 -1.65063 0.00552405 0.00251108 1.42109e-14 -2.35 -1.42109e-14 -1.61404 0.00531199 0.00276044 -5 17 -2.84217e-14 9.34985e-05 -0.00612535 0.842696 -6.5 2.84217e-14 -2.84217e-14 8.9775e-05 -0.00611065 0.841705 -6.5 -2.84217e-14 2.84217e-14 -11.3474 -3.12553 8.55792 0 -37.9535 -2 93.1041 -71.8012 70.2592 1.42109e-14 -30.0465 2 -6.18519 11.4643 30.137 0.5 -1.5 2.65 -7.68045 -9.17598 -9.79613 0 -3.8 3.7 0.0236937 5.31323 -0.00160522 1.77636e-15 -3 2.7 0.00549935 -0.0609506 -0.00675348 -7.10543e-15 -1.9 1.6 1.18378e-06 -9.7053e-06 5.03183e-06 0 -8.3 1.9 0.805148 -7.56856 0.0188571 8.88178e-15 -4.5 0 0.00766866 0.0021518 0.00383686 -1.77636e-15 -3.4 0 0.00762992 0.00206907 0.00374038 0.25 -2.2 0.4 1.18378e-06 -9.7053e-06 5.03183e-06 -5.32907e-15 -8.3 1 0.423136 -5.49166 -0.05723 0 -4.65 0 0.119039 -0.000972412 0.000839939 7.10543e-15 -3.3 0 2.53455e-06 0.000291887 0.00273697 0.5 -2.15 -0.8 1.18378e-06 -9.7053e-06 5.03183e-06 -5.32907e-15 -7.75 -0.2 2.30805 -12.4266 0.00719374 0 -3.8 0 0.0709321 0.00296249 0.00176303 -7.10543e-15 -3.4 -1.42109e-14 0.00727003 0.00278024 0.00145685 0.75 -1.75 -1.85 1.18378e-06 -9.7053e-06 5.03183e-06 -8.88178e-15 -7.15 -1 0.846194 -7.70351 -0.0869419 -3.55271e-15 -3 1.42109e-14 8.97796e-06 -0.00205201 -0.00238209 -3.55271e-15 -2.35 0 -6.00468e-06 -0.0018022 -0.00216348 10 -1.42109e-14 0 4.0055 -41.1798 -4.94708 0 -49.4477 -1 1.71158 39.234 -13.0432 0 -45.0523 -2 -5.30032 -3.75149 -9.60003 -1.42109e-14 -7.5 12.5 -2.36161e-06 -4.63669e-07 5.41863e-08 0 0 4 3.77501 -0.0162059 -0.0598631 -10 1.42109e-14 0 -5.30182 -3.67419 3.43031 1.42109e-14 -49.4477 -1 -0.00825002 4.07444 -0.0556089 0 -45.0523 -2 2.10199 -0.301014 36.2408 0 -7.5 12.5 -5.21861e-09 -8.58363e-07 -5.55007e-13 0 1.73472e-18 4 -2.11752 0.385671 -0.0028702 
